<svg xmlns="http://www.w3.org/2000/svg" width="256" height="256" viewBox="0 0 100 100"><rect width="100" height="100" rx="0" fill="#000000"></rect><path fill="#ffffff" d="M37.89 76.18L33.11 76.18L33.11 23.82L50.01 23.82Q55.59 23.82 59.33 25.95Q63.08 28.09 64.98 31.74Q66.89 35.40 66.89 39.98L66.89 39.98Q66.89 44.55 65.00 48.22Q63.10 51.89 59.37 54.03Q55.64 56.16 50.09 56.16L50.09 56.16L36.79 56.16L36.79 51.87L49.96 51.87Q54.08 51.87 56.79 50.32Q59.50 48.77 60.84 46.09Q62.18 43.40 62.18 39.98L62.18 39.98Q62.18 36.55 60.84 33.87Q59.50 31.18 56.78 29.65Q54.05 28.11 49.88 28.11L49.88 28.11L37.89 28.11L37.89 76.18Z"></path></svg>